<svg viewBox="0 0 100 100" xmlns="http://www.w3.org/2000/svg">
    <defs>
        <linearGradient id="gradient-d" x1="0%" y1="0%" x2="100%" y2="100%">
            <stop offset="0%" style="stop-color:#1e3a8a;stop-opacity:1" />
            <stop offset="100%" style="stop-color:#4b5563;stop-opacity:1" />
        </linearGradient>
        <linearGradient id="gradient-p" x1="0%" y1="0%" x2="100%" y2="100%">
            <stop offset="0%" style="stop-color:#374151;stop-opacity:1" />
            <stop offset="100%" style="stop-color:#d97706;stop-opacity:1" />
        </linearGradient>
    </defs>
    <path d="M 10 15 L 30 15 C 45 15 55 25 55 42.5 C 55 60 45 70 30 70 L 10 70 L 10 15 Z M 20 25 L 20 60 L 28 60 C 38 60 45 52 45 42.5 C 45 33 38 25 28 25 Z"
          fill="url(#gradient-d)" />
    <path d="M 55 25 L 75 25 C 88 25 95 32 95 42.5 C 95 53 88 60 75 60 L 65 60 L 65 85 L 55 85 Z M 65 35 L 65 50 L 73 50 C 80 50 85 47 85 42.5 C 85 38 80 35 73 35 Z"
          fill="url(#gradient-p)" />
</svg>
